<svg id="mastercard" xmlns="http://www.w3.org/2000/svg" width="50" height="30" viewBox="0 0 50 30">
  <metadata><?xpacket begin="﻿" id="W5M0MpCehiHzreSzNTczkc9d"?>
<x:xmpmeta xmlns:x="adobe:ns:meta/" x:xmptk="Adobe XMP Core 5.6-c138 79.159824, 2016/09/14-01:09:01        ">
   <rdf:RDF xmlns:rdf="http://www.w3.org/1999/02/22-rdf-syntax-ns#">
      <rdf:Description rdf:about=""/>
   </rdf:RDF>
</x:xmpmeta>
                                                                                                    
                                                                                                    
                                                                                                    
                                                                                                    
                                                                                                    
                                                                                                    
                                                                                                    
                                                                                                    
                                                                                                    
                                                                                                    
                                                                                                    
                                                                                                    
                                                                                                    
                                                                                                    
                                                                                                    
                                                                                                    
                                                                                                    
                                                                                                    
                                                                                                    
                                                                                                    
                           
<?xpacket end="w"?></metadata>
<defs>
    <style>
      .cls-1 {
        fill: #d42929;
      }

      .cls-2 {
        fill: #fff;
        fill-rule: evenodd;
      }
    </style>
  </defs>
  <rect id="Rectangle_3574_copy" data-name="Rectangle 3574 copy" class="cls-1" width="50" height="30" rx="2" ry="2"/>
  <path class="cls-2" d="M333.487,1172a8.377,8.377,0,0,1,3.15-6.56,8.058,8.058,0,0,0-10.916,1.62,8.016,8.016,0,0,0,10.916,11.5A8.392,8.392,0,0,1,333.487,1172Zm14.79-4.94a8.059,8.059,0,0,0-10.917-1.62,8.4,8.4,0,0,1,1.157,11.99,8.531,8.531,0,0,1-1.146,1.12A8.039,8.039,0,0,0,350,1172h0a7.947,7.947,0,0,0-1.724-4.94h0ZM337,1165.71a8,8,0,0,0,0,12.57,7.954,7.954,0,0,0,1.249-11.34A8.4,8.4,0,0,0,337,1165.71Z" transform="translate(-312 -1157)"/>
</svg>
