<svg id="Layer_1" data-name="Layer 1" xmlns="http://www.w3.org/2000/svg" xmlns:xlink="http://www.w3.org/1999/xlink" width="123" height="30" viewBox="0 0 441.214 107.738"><defs><style>.cls-1,.cls-2,.cls-3{fill:none;}.cls-2{clip-rule:evenodd;}.cls-3{fill-rule:evenodd;}.cls-4{clip-path:url(#clip-path);}.cls-5{fill:#253b80;}.cls-6{fill:#179bd7;}.cls-7{fill:#222d65;}.cls-8{clip-path:url(#clip-path-4);}</style><clipPath id="clip-path" transform="translate(-31.154 -191.137)"><rect id="_Clipping_Path_" data-name="&lt;Clipping Path&gt;" class="cls-1" x="31.154" y="191.137" width="442.691" height="117.813"/></clipPath><clipPath id="clip-path-4" transform="translate(-31.154 -191.137)"><polyline id="_Clipping_Path_4" data-name="&lt;Clipping Path&gt;" class="cls-2" points="473.846 191.137 473.846 308.95 31.154 308.95 31.154 191.137"/></clipPath></defs><title>paypal</title><g id="_Group_" data-name="&lt;Group&gt;"><g id="_Group_6" data-name="&lt;Group&gt;"><g id="_Group_7" data-name="&lt;Group&gt;"><g id="_Group_8" data-name="&lt;Group&gt;"><g id="_Group_9" data-name="&lt;Group&gt;"><path id="_Compound_Path_" data-name="&lt;Compound Path&gt;" class="cls-5" d="M198.949,238.1c-1.335,8.761-8.029,8.761-14.5,8.761h-3.684l2.585-16.362a2.034,2.034,0,0,1,2.01-1.717h1.689c4.409,0,8.568,0,10.717,2.513C199.045,232.793,199.438,235.02,198.949,238.1Zm-2.817-22.867H171.716a3.393,3.393,0,0,0-3.352,2.863L158.489,280.7a2.033,2.033,0,0,0,2.014,2.349h11.656a3.392,3.392,0,0,0,3.352-2.867l2.663-16.886a3.389,3.389,0,0,1,3.349-2.867h7.729c16.083,0,25.366-7.783,27.79-23.206,1.092-6.748.046-12.049-3.113-15.762C210.459,217.388,204.3,215.231,196.132,215.231Z" transform="translate(-31.154 -191.137)"/><path id="_Compound_Path_2" data-name="&lt;Compound Path&gt;" class="cls-5" d="M252.818,260.572a13.031,13.031,0,0,1-13.191,11.164c-3.4,0-6.108-1.089-7.851-3.153a9.941,9.941,0,0,1-1.835-8.215,13.087,13.087,0,0,1,13.1-11.253,9.864,9.864,0,0,1,7.8,3.184A10.12,10.12,0,0,1,252.818,260.572Zm16.3-22.756H257.423a2.037,2.037,0,0,0-2.01,1.717l-.518,3.27-.818-1.185c-2.531-3.674-8.176-4.9-13.809-4.9-12.92,0-23.955,9.786-26.1,23.513-1.117,6.847.471,13.395,4.356,17.961,3.563,4.2,8.661,5.948,14.727,5.948a22.372,22.372,0,0,0,16.183-6.694l-.521,3.249a2.034,2.034,0,0,0,2.006,2.356h10.532a3.392,3.392,0,0,0,3.352-2.867l6.319-40.017A2.027,2.027,0,0,0,269.115,237.816Z" transform="translate(-31.154 -191.137)"/><path id="_Path_" data-name="&lt;Path&gt;" class="cls-5" d="M331.385,237.816H319.636a3.4,3.4,0,0,0-2.81,1.489l-16.2,23.87-6.869-22.938a3.4,3.4,0,0,0-3.256-2.42H278.951a2.036,2.036,0,0,0-1.931,2.692l12.942,37.979-12.167,17.176a2.034,2.034,0,0,0,1.66,3.213h11.735a3.387,3.387,0,0,0,2.788-1.457l39.078-56.407A2.034,2.034,0,0,0,331.385,237.816Z" transform="translate(-31.154 -191.137)"/><path id="_Compound_Path_3" data-name="&lt;Compound Path&gt;" class="cls-6" d="M373.1,238.1c-1.332,8.761-8.026,8.761-14.5,8.761h-3.681l2.588-16.362a2.028,2.028,0,0,1,2.006-1.717H361.2c4.405,0,8.568,0,10.717,2.513C373.2,232.793,373.59,235.02,373.1,238.1Zm-2.817-22.867H345.865a3.392,3.392,0,0,0-3.349,2.863L332.641,280.7a2.031,2.031,0,0,0,2.006,2.349h12.531a2.374,2.374,0,0,0,2.342-2.006l2.8-17.747a3.389,3.389,0,0,1,3.349-2.867H363.4c16.087,0,25.365-7.783,27.793-23.206,1.1-6.748.043-12.049-3.117-15.762C384.608,217.388,378.456,215.231,370.284,215.231Z" transform="translate(-31.154 -191.137)"/><path id="_Compound_Path_4" data-name="&lt;Compound Path&gt;" class="cls-6" d="M426.967,260.572a13.026,13.026,0,0,1-13.191,11.164c-3.388,0-6.108-1.089-7.851-3.153a9.966,9.966,0,0,1-1.835-8.215,13.092,13.092,0,0,1,13.1-11.253,9.864,9.864,0,0,1,7.8,3.184A10.07,10.07,0,0,1,426.967,260.572Zm16.3-22.756H431.579a2.025,2.025,0,0,0-2.006,1.717l-.518,3.27-.821-1.185c-2.531-3.674-8.172-4.9-13.806-4.9-12.92,0-23.952,9.786-26.1,23.513-1.114,6.847.468,13.395,4.352,17.961,3.57,4.2,8.661,5.948,14.727,5.948a22.371,22.371,0,0,0,16.183-6.694l-.521,3.249a2.035,2.035,0,0,0,2.014,2.356H435.61a3.392,3.392,0,0,0,3.349-2.867l6.323-40.017A2.039,2.039,0,0,0,443.264,237.816Z" transform="translate(-31.154 -191.137)"/><path id="_Path_2" data-name="&lt;Path&gt;" class="cls-6" d="M457.048,216.949,447.027,280.7a2.031,2.031,0,0,0,2.006,2.349h10.075a3.387,3.387,0,0,0,3.352-2.867l9.882-62.605a2.034,2.034,0,0,0-2.006-2.353H459.055A2.039,2.039,0,0,0,457.048,216.949Z" transform="translate(-31.154 -191.137)"/><path id="_Path_3" data-name="&lt;Path&gt;" class="cls-5" d="M57.095,295.219l1.867-11.86-4.159-.1H34.942l13.8-87.513a1.156,1.156,0,0,1,.386-.686,1.127,1.127,0,0,1,.735-.271H83.353c11.117,0,18.789,2.313,22.8,6.879a15.687,15.687,0,0,1,3.652,6.844,24.709,24.709,0,0,1,.025,9.44l-.043.275v2.413l1.878,1.064a13.18,13.18,0,0,1,3.8,2.9,13.5,13.5,0,0,1,3.085,6.919,29.268,29.268,0,0,1-.439,10.039,35.353,35.353,0,0,1-4.113,11.364,23.372,23.372,0,0,1-6.515,7.14,26.433,26.433,0,0,1-8.775,3.96,43.78,43.78,0,0,1-10.967,1.267H85.13a7.838,7.838,0,0,0-7.751,6.615l-.2,1.068-3.3,20.9-.15.768a.658.658,0,0,1-.207.446.55.55,0,0,1-.343.125Z" transform="translate(-31.154 -191.137)"/><path id="_Path_4" data-name="&lt;Path&gt;" class="cls-6" d="M113.438,218.509q-.15.958-.343,1.963c-4.416,22.674-19.525,30.507-38.821,30.507H64.449a4.771,4.771,0,0,0-4.716,4.041l-5.03,31.9-1.424,9.043a2.514,2.514,0,0,0,2.481,2.906H73.185a4.193,4.193,0,0,0,4.141-3.534l.171-.885,3.281-20.821.211-1.143a4.191,4.191,0,0,1,4.141-3.542h2.606c16.883,0,30.1-6.855,33.962-26.69,1.614-8.286.778-15.205-3.492-20.071A16.659,16.659,0,0,0,113.438,218.509Z" transform="translate(-31.154 -191.137)"/><path id="_Path_5" data-name="&lt;Path&gt;" class="cls-7" d="M108.818,216.667q-1.012-.295-2.085-.535t-2.21-.418a54.574,54.574,0,0,0-8.661-.632H69.615a4.185,4.185,0,0,0-4.138,3.542l-5.584,35.365-.161,1.032a4.771,4.771,0,0,1,4.716-4.041h9.825c19.3,0,34.4-7.837,38.821-30.507.132-.671.243-1.324.343-1.963a23.518,23.518,0,0,0-3.631-1.532C109.486,216.87,109.154,216.767,108.818,216.667Z" transform="translate(-31.154 -191.137)"/><path id="_Path_6" data-name="&lt;Path&gt;" class="cls-5" d="M65.477,218.623a4.187,4.187,0,0,1,4.138-3.538H95.862a54.572,54.572,0,0,1,8.661.632q1.135.182,2.21.418t2.085.535c.336.1.668.2.992.307a23.857,23.857,0,0,1,3.631,1.532c1.314-8.379-.011-14.084-4.541-19.25-4.995-5.688-14.009-8.122-25.544-8.122H49.869a4.786,4.786,0,0,0-4.73,4.045L31.19,283.6a2.877,2.877,0,0,0,2.838,3.328H54.7l5.191-32.934Z" transform="translate(-31.154 -191.137)"/></g></g></g></g></g></svg>
