<svg id="visa" xmlns="http://www.w3.org/2000/svg" width="50" height="30" viewBox="0 0 50 30">
  <metadata><?xpacket begin="﻿" id="W5M0MpCehiHzreSzNTczkc9d"?>
<x:xmpmeta xmlns:x="adobe:ns:meta/" x:xmptk="Adobe XMP Core 5.6-c138 79.159824, 2016/09/14-01:09:01        ">
   <rdf:RDF xmlns:rdf="http://www.w3.org/1999/02/22-rdf-syntax-ns#">
      <rdf:Description rdf:about=""/>
   </rdf:RDF>
</x:xmpmeta>
                                                                                                    
                                                                                                    
                                                                                                    
                                                                                                    
                                                                                                    
                                                                                                    
                                                                                                    
                                                                                                    
                                                                                                    
                                                                                                    
                                                                                                    
                                                                                                    
                                                                                                    
                                                                                                    
                                                                                                    
                                                                                                    
                                                                                                    
                                                                                                    
                                                                                                    
                                                                                                    
                           
<?xpacket end="w"?></metadata>
<defs>
    <style>
      .cls-1 {
        fill: #3d5583;
      }

      .cls-2 {
        fill: #fff;
        fill-rule: evenodd;
      }
    </style>
  </defs>
  <rect class="cls-1" width="50" height="30" rx="2" ry="2"/>
  <path class="cls-2" d="M269.238,1166.64l-2.7,8.09s-0.155-.69-0.22-1.12a10.074,10.074,0,0,0-4.037-4.81l2.37,9.2H267.9l4.493-11.37h-3.159v0.01Zm2.576,11.36h2.952l1.787-11.36h-2.988Zm-5.635-5.06-0.994-5.16a1.837,1.837,0,0,0-1.616-1.12H259S264.825,1168.48,266.179,1172.94Zm14.563-3.05c0-.66.512-1.15,1.981-1.15a4.477,4.477,0,0,1,2.047.74l0.478-2.52a8.744,8.744,0,0,0-2.766-.55c-3.106,0-4.709,1.56-4.709,3.55,0,3.59,4.094,3.1,4.094,4.95,0,0.31-.239,1.04-1.943,1.04a6.058,6.058,0,0,1-2.835-.66l-0.511,2.41a6.636,6.636,0,0,0,3.21.66c2.116,0,5.051-1.67,5.051-4.08C284.838,1171.39,280.742,1171.18,280.742,1169.89Zm11.969-3.25h-3.106L284.758,1178h2.932l0.608-1.62h3.7l0.319,1.62H295Zm-3.594,7.57,1.607-4.3,0.843,4.3h-2.45Z" transform="translate(-252 -1157)"/>
</svg>
